<svg xmlns="http://www.w3.org/2000/svg" xmlns:xlink="http://www.w3.org/1999/xlink" width="119px" height="28px" viewBox="0 0 119 28" version="1.1">
    <!-- Generator: Sketch 46.2 (44496) - http://www.bohemiancoding.com/sketch -->
    <title>Page 1</title>
    <desc>Created with Sketch.</desc>
    <defs>
        <polygon id="path-1" points="13.1916984 0.103497109 11.6454564 17.1943834 10.3023842 0.103497109 7.16950525 0.103497109 5.58215121 17.1943834 4.28019105 0.103497109 0.210818591 0.103497109 3.30330263 27.2046811 6.76220947 27.2046811 8.43083144 12.2707415 9.8955665 27.2046811 13.3953463 27.2046811 16.9763941 0.103497109"/>
        <polygon id="path-3" points="0.0757704005 27.2049201 4.26704476 27.2049201 4.26704476 0.103497109 0.0757704005 0.103497109"/>
        <polygon id="path-5" points="0.389847076 0.103497109 0.389847076 4.09184065 5.19182609 4.09184065 0.104453202 25.781058 0.104453202 27.2051591 9.54611437 27.2051591 9.54611437 23.2172936 4.70326237 23.2172936 9.78967916 1.52831527 9.78967916 0.103497109"/>
        <polygon id="path-7" points="0.0516290426 0.103497109 0.0516290426 27.2046811 8.84147355 27.2046811 8.84147355 23.1761816 4.24338145 23.1761816 4.24338145 15.1187046 7.29475348 15.1187046 7.29475348 11.415755 4.24338145 11.415755 4.24338145 4.00985564 8.84147355 4.00985564 8.84147355 0.103497109"/>
        <polygon id="path-9" points="0.0628631399 0.103497109 0.0628631399 27.2046811 8.48628486 27.2046811 8.48628486 24.3971129 2.99281131 24.3971129 2.99281131 0.103497109"/>
        <polygon id="path-11" points="0.0740972371 27.2049201 3.04444035 27.2049201 3.04444035 0.103497109 0.0740972371 0.103497109"/>
        <polygon id="path-13" points="8.09619876 0.103497109 8.09619876 18.4153146 6.87502849 14.0206314 2.68399315 0.103497109 0.038721782 0.103497109 0.038721782 27.2046811 2.80589505 27.2046811 2.80589505 9.13666738 4.10833326 13.4911947 8.70666438 27.2046811 10.863133 27.2046811 10.863133 0.103497109"/>
        <polygon id="path-15" points="0.0965654316 0.103497109 0.0965654316 27.2046811 8.72339602 27.2046811 8.72339602 24.4783808 3.02627458 24.4783808 3.02627458 14.508478 7.13652003 14.508478 7.13652003 11.8629677 3.02627458 11.8629677 3.02627458 2.82955836 8.72339602 2.82955836 8.72339602 0.103497109"/>
    </defs>
    <g id="Symbols" stroke="none" stroke-width="1" fill="none" fill-rule="evenodd">
        <g id="Navigation" transform="translate(-150.000000, -27.000000)">
            <g id="Page-1">
                <g transform="translate(150.000000, 27.000000)">
                    <g id="Group-14" transform="translate(0.000000, 0.107321)">
                        <mask id="mask-2" fill="white">
                            <use xlink:href="#path-1"/>
                        </mask>
                        <g id="Clip-13"/>
                        <polygon id="Fill-12" fill="#262E30" mask="url(#mask-2)" points="-5.49753695 32.9127976 22.6845106 32.9127976 22.6845106 -5.60485843 -5.49753695 -5.60485843"/>
                    </g>
                    <g id="Group-17" transform="translate(23.424288, 0.107321)">
                        <mask id="mask-4" fill="white">
                            <use xlink:href="#path-3"/>
                        </mask>
                        <g id="Clip-16"/>
                        <polygon id="Fill-15" fill="#262E30" mask="url(#mask-4)" points="-5.63234611 32.9130366 9.9754003 32.9130366 9.9754003 -5.60485843 -5.63234611 -5.60485843"/>
                    </g>
                    <g id="Group-20" transform="translate(32.985222, 0.107321)">
                        <mask id="mask-6" fill="white">
                            <use xlink:href="#path-5"/>
                        </mask>
                        <g id="Clip-19"/>
                        <polygon id="Fill-18" fill="#262E30" mask="url(#mask-6)" points="-5.60342429 32.9135147 15.4980347 32.9135147 15.4980347 -5.6046194 -5.60342429 -5.6046194"/>
                    </g>
                    <g id="Group-23" transform="translate(49.477833, 0.107321)">
                        <mask id="mask-8" fill="white">
                            <use xlink:href="#path-7"/>
                        </mask>
                        <g id="Clip-22"/>
                        <polygon id="Fill-21" fill="#262E30" mask="url(#mask-8)" points="-5.65648747 32.9127976 14.5498291 32.9127976 14.5498291 -5.60485843 -5.65648747 -5.60485843"/>
                    </g>
                    <g id="Group-26" transform="translate(64.536303, 0.107321)">
                        <mask id="mask-10" fill="white">
                            <use xlink:href="#path-9"/>
                        </mask>
                        <g id="Clip-25"/>
                        <polygon id="Fill-24" fill="#E93D44" mask="url(#mask-10)" points="-5.64525337 32.9127976 14.1946404 32.9127976 14.1946404 -5.60485843 -5.64525337 -5.60485843"/>
                    </g>
                    <g id="Group-29" transform="translate(79.594774, 0.107321)">
                        <mask id="mask-12" fill="white">
                            <use xlink:href="#path-11"/>
                        </mask>
                        <g id="Clip-28"/>
                        <polygon id="Fill-27" fill="#E93D44" mask="url(#mask-12)" points="-5.63401928 32.9130366 8.75279589 32.9130366 8.75279589 -5.60485843 -5.63401928 -5.60485843"/>
                    </g>
                    <g id="Group-32" transform="translate(90.589848, 0.107321)">
                        <mask id="mask-14" fill="white">
                            <use xlink:href="#path-13"/>
                        </mask>
                        <g id="Clip-31"/>
                        <polygon id="Fill-30" fill="#E93D44" mask="url(#mask-14)" points="-5.66939473 32.9127976 16.5712495 32.9127976 16.5712495 -5.60485843 -5.66939473 -5.60485843"/>
                    </g>
                    <g id="Group-35" transform="translate(109.711716, 0.107321)">
                        <mask id="mask-16" fill="white">
                            <use xlink:href="#path-15"/>
                        </mask>
                        <g id="Clip-34"/>
                        <polygon id="Fill-33" fill="#E93D44" mask="url(#mask-16)" points="-5.6117901 32.9127976 14.4315125 32.9127976 14.4315125 -5.60485843 -5.6117901 -5.60485843"/>
                    </g>
                </g>
            </g>
        </g>
    </g>
</svg>
