<svg xmlns="http://www.w3.org/2000/svg" width="760" height="424" viewBox="0 0 760 424">
    <defs>
        <linearGradient id="a" x1="66.781%" x2="66.781%" y1="100%" y2="0%">
            <stop offset="0%" stop-color="#E7EBF3" stop-opacity="0"/>
            <stop offset="100%" stop-color="#E7EBF3"/>
        </linearGradient>
        <linearGradient id="b" x1="50%" x2="50%" y1="0%" y2="98.273%">
            <stop offset="0%" stop-color="#E7EBF3" stop-opacity="0"/>
            <stop offset="100%" stop-color="#E7EBF3" stop-opacity=".5"/>
        </linearGradient>
        <linearGradient id="c" x1="50%" x2="50%" y1="50%" y2="100%">
            <stop offset="0%" stop-color="#D32F2F"/>
            <stop offset="100%" stop-color="#D32F2F" stop-opacity="0"/>
        </linearGradient>
        <linearGradient id="d" x1="49.649%" x2="33.409%" y1="99.095%" y2="57.224%">
            <stop offset="0%" stop-color="#5E92F3" stop-opacity="0"/>
            <stop offset="100%" stop-color="#5E92F3"/>
        </linearGradient>
        <linearGradient id="e" x1="66.789%" x2="66.789%" y1="44.347%" y2="90.682%">
            <stop offset="0%" stop-color="#5E92F3"/>
            <stop offset="100%" stop-color="#5E92F3" stop-opacity="0"/>
        </linearGradient>
        <linearGradient id="f" x1="50%" x2="39.247%" y1="37.559%" y2="89.957%">
            <stop offset="0%" stop-color="#D32F2F"/>
            <stop offset="100%" stop-color="#D32F2F" stop-opacity="0"/>
        </linearGradient>
        <linearGradient id="g" x1="50%" x2="50%" y1="50%" y2="92.787%">
            <stop offset="0%" stop-color="#D32F2F"/>
            <stop offset="100%" stop-color="#D32F2F" stop-opacity="0"/>
        </linearGradient>
        <linearGradient id="h" x1="50%" x2="50%" y1="22.886%" y2="84.201%">
            <stop offset="0%" stop-color="#FF6659"/>
            <stop offset="100%" stop-color="#FF6659" stop-opacity="0"/>
        </linearGradient>
        <linearGradient id="i" x1="50%" x2="50%" y1="31.315%" y2="89.88%">
            <stop offset="0%" stop-color="#1565C0"/>
            <stop offset="100%" stop-color="#1565C0" stop-opacity="0"/>
        </linearGradient>
        <linearGradient id="j" x1="50%" x2="50%" y1="50%" y2="92.421%">
            <stop offset="0%" stop-color="#D32F2F"/>
            <stop offset="100%" stop-color="#D32F2F" stop-opacity="0"/>
        </linearGradient>
        <linearGradient id="k" x1="50%" x2="50%" y1="57.398%" y2="100%">
            <stop offset="0%" stop-color="#FF6659"/>
            <stop offset="100%" stop-color="#FF6659" stop-opacity="0"/>
        </linearGradient>
        <linearGradient id="l" x1="64.359%" x2="64.359%" y1="43.68%" y2="90.903%">
            <stop offset="0%" stop-color="#5E92F3"/>
            <stop offset="100%" stop-color="#5E92F3" stop-opacity="0"/>
        </linearGradient>
        <linearGradient id="m" x1="50%" x2="41.374%" y1="38.39%" y2="84.431%">
            <stop offset="0%" stop-color="#D32F2F"/>
            <stop offset="100%" stop-color="#D32F2F" stop-opacity="0"/>
        </linearGradient>
        <linearGradient id="n" x1="50%" x2="50%" y1="50%" y2="93.738%">
            <stop offset="0%" stop-color="#D32F2F"/>
            <stop offset="100%" stop-color="#D32F2F" stop-opacity="0"/>
        </linearGradient>
        <linearGradient id="o" x1="61.25%" x2="61.25%" y1="50%" y2="90.595%">
            <stop offset="0%" stop-color="#5E92F3"/>
            <stop offset="100%" stop-color="#5E92F3" stop-opacity="0"/>
        </linearGradient>
        <linearGradient id="p" x1="50%" x2="63.703%" y1="19.118%" y2="79.06%">
            <stop offset="0%" stop-color="#1565C0"/>
            <stop offset="100%" stop-color="#1565C0" stop-opacity="0"/>
        </linearGradient>
    </defs>
    <g fill="none" fill-rule="evenodd">
        <path fill="#E7EBF3" d="M258.215 271s-15.89-11.317-5.938-24.311c9.951-12.994 14.513-11.737 18.66-20.958 4.146-9.222 6.219-24.731 6.219-24.731s3.732 18.443 7.878 25.15c4.147 6.706 13.27 15.509 17.416 20.12 4.88 5.425 6.22 16.347-5.805 24.31l-38.43.42zM260 280h35v-5h-35zM262 283l1.676 3 28.067-.333L293 283s-30.302.556-31 0"/>
        <path fill="url(#a)" d="M126.116 198.608h-.14V174H99.606v25.095L95 204.447V257h36v-52.553z" transform="translate(165 118)"/>
        <path fill="#E7EBF3" d="M536.114 294s-12.267-8.73-4.585-18.754c7.682-10.024 11.203-9.054 14.404-16.168 3.201-7.114 4.801-19.078 4.801-19.078s2.881 14.228 6.082 19.401c3.2 5.174 10.243 11.964 13.444 15.521 3.766 4.186 4.8 12.61-4.482 18.755l-29.664.323zM538 301h27v-4h-27zM539 303l1.297 2 21.73-.222L563 303s-23.46.37-24 0"/>
        <path fill="url(#a)" d="M397.201 211.271h-.108V192h-20.512v19.653L373 215.844V257h28v-41.156z" transform="translate(165 118)"/>
        <path fill="#E7EBF3" d="M405.98 312s-7.98-2.938-7.98-10.491c0-7.554 8.4-13.009 11.76-16.366 3.36-3.357 9.24-15.527 9.24-20.143 0 0 4.62 15.527 8.4 19.304 3.78 3.776 12.6 8.812 12.6 16.366 0 7.553-7.14 11.33-7.14 11.33h-26.88z"/>
        <path fill="url(#a)" d="M266.534 215.526V196h-26.489v19.862L235 220.828V244h37v-22.758z" transform="translate(165 118)"/>
        <path fill="#E7EBF3" d="M345.29 118s-2.09 9.718-4.6 12.254c-2.725 2.754-6.69 6.338-6.69 10.563 0 4.225 4.6 7.183 4.6 7.183h14.218s4.182-2.113 4.182-7.183-3.91-7.754-7.11-10.986c-2.09-2.113-4.6-11.831-4.6-11.831M339 151h15l-2.763 21h-10.263zM340.617 174h10.435L369 235h-48z"/>
        <path fill="url(#a)" d="M151.491 122h54.937L216 177.03V235h-71.584L144 177.03z" transform="translate(165 118)"/>
        <path fill="#E7EBF3" d="M447.78 273s-3.78-5.023-3.78-13.395 10.5-16.745 13.44-21.35c2.94-4.604 7.98-19.255 7.98-19.255s5.675 16.213 8.4 20.093c2.94 4.186 12.18 13.395 12.18 20.093 0 7.535-4.2 13.814-4.2 13.814h-34.02z"/>
        <path fill="url(#a)" d="M316.632 184.251V158h-33.264v26.251L272 196.336v19.8l3.79 5.477V257l48.631-.632v-34.965l3.579-5.266v-19.8z" transform="translate(165 118)"/>
        <path fill="#E7EBF3" d="M172.79 298s-2.79-3.72-2.79-9.922 7.75-12.404 9.92-15.814c2.17-3.411 5.89-14.264 5.89-14.264s4.189 12.01 6.2 14.884c2.17 3.1 8.99 9.922 8.99 14.883 0 5.582-3.1 10.233-3.1 10.233h-25.11z"/>
        <path fill="url(#a)" d="M33.474 202.622V183H8.526v19.622L0 211.655v14.8l2.842 4.094V257l36.474-.472v-26.136L42 226.456v-14.8z" transform="translate(165 118)"/>
        <g fill="url(#b)" transform="translate(81 -1)">
            <path d="M534.052 70l50.912 50.912-255.608 212.496-13.336-13.335zM27 116.912L77.912 66l212.496 255.608-13.335 13.336z"/>
            <path d="M593.025 204.874l18.635 69.547-327.611 56.223-4.881-18.217z"/>
            <path d="M.304 270.42l18.635-69.546L330.77 315.99l-4.88 18.217z"/>
            <path d="M392.257 4.65l67.658 24.626-141.854 300.612-17.722-6.45z"/>
            <path d="M151.049 25.276L218.707.65l84.562 321.465-17.722 6.45z"/>
        </g>
        <g opacity=".598">
            <path fill="url(#c)" d="M32.632 40.375l-19.474 3.188-5.79 5.843-2.631-9.031 3.158-3.188 2.631-5.312-6.315-3.188L0 32.407l.526 28.156 11.053-2.657 5.263 17L21.58 85l10.526-2.125 6.842-35.594L50 29.22 42.105 4.78 35.79 0l-3.684 6.375 1.58 1.594-1.053 2.656 6.315 3.188 3.685 13.28z" transform="matrix(-1 0 0 1 333 306)"/>
            <path fill="#D32F2F" d="M303.588 326.933l10.747-3.784s3.224 3.244 3.224 9.19-2.15 11.352-2.15 11.352l-9.134 1.08-2.687-17.838z"/>
        </g>
        <g opacity=".598">
            <path fill="url(#d)" d="M18.117 14.983L35.084 0 53 11.16l-9.932 7.385-14.807-6.918-8.63 6.539 1.108 3.546-2.592 2.55-6.222 1.02-4.666 7.141 3.11 14.282 18.666 4.08 12.443-8.16-1.037-7.142-4.666-2.55 2.592-6.63 7.778 3.06L47.7 47.725 31.109 58.946l-2.074 12.752L38.367 87l-17.11-.51-10.369-10.711-6.74-23.463L0 32.423l7.259-10.201v-2.55l5.703-5.611 5.155.922z" transform="matrix(-1 0 0 1 720 296)"/>
            <path fill="#5E92F3" d="M694.986 341.697s-1.006-3.85-3.521-7.7c-2.516-3.85-5.032-6.737-5.032-6.737l9.056-5.775s6.444 2.52 8.05 8.662c1.509 5.775-.503 10.106-.503 10.106l-8.05 1.444z"/>
        </g>
        <g opacity=".598">
            <path fill="url(#e)" d="M26.563 89l13.812-11.192L46.219 45.3 51 26.114 43.031 6.395 36.125 0l-5.844 5.33 5.313 6.927 3.187-.532 4.782 13.323-4.25 14.39-19.126 3.197-4.78 17.587-5.845-4.797v-4.263l-4.78-6.396L0 52.76l4.25 5.863L17 71.413l4.25-4.796z" transform="matrix(-1 0 0 1 95 314)"/>
            <path fill="#5E92F3" d="M71.297 332.276s-5.214-2.624-11.993-1.574c0 0-.521 6.298-.521 10.497 0 4.2 1.564 8.923 1.564 8.923l7.821.525s3.65-5.774 3.129-18.37"/>
        </g>
        <g opacity=".598">
            <path fill="#D32F2F" d="M644.005 322.988s-2.557-1.487-7.672.496c-5.113 1.984-6.136 4.463-6.136 4.463l8.183 13.883 9.716-3.471s.51-5.95-4.091-15.37"/>
            <path fill="url(#f)" d="M50.88 29.691l-5.3-2.65-4.77 6.362 3.18 4.771-2.12 4.242-2.12-7.423-5.83-3.18-15.37-5.303-8.48-5.302 3.18-10.074 3.71.53 2.12-.53 2.385-2.916-1.308-.818 1.573-2.098L15.37 0 10.6 3.711 0 24.92l10.07 7.423s-.53 9.544 0 17.497c.53 7.953 4.24 18.557 4.24 18.557L30.21 79l4.24-27.57 6.89 6.892L53 34.993l-2.12-5.302z" transform="matrix(-1 0 0 1 672 315)"/>
        </g>
        <g opacity=".598">
            <path fill="url(#g)" d="M55.444 15.635l-3.295 2.463-.556-.85 3.383-7.413-1.06-1.249L50.03 15.6l-1.46-.747 2.519-7.943-1.408-.295-2.972 7.995-1.356.155.691-7.419-1.304.606-1.091 7.921-.296 1.406-3.476-2.343-.348.953 2.275 3.85 1.216 2.602 1.768 2.084.258 12.335-9.025 4.765-14.863-1.059-7.963-9-1.82-13.313 1.82-2.723.91-2.723 1.82-4.084-.455-.908-3.185 2.723-.455-1.362-.455-8.168L10.01.454v7.715H8.645L6.825 0 5.46.454l1.365 8.169-1.365.907-3.64-6.807-.91 1.362 3.185 7.26-.455.908L.455 9.53 0 10.438l3.64 4.992 3.64 4.085 2.2 13.538 9.024 14.825 1.592 12.178-6.37 20.12L43.984 86 34.96 61.115l1.592-12.178 13.271-10.06-.46-13.15 2.707-5.078L56 16.485z" transform="matrix(-1 0 0 1 587 296)"/>
            <path fill="#D32F2F" d="M551.907 323.431c0 4.914 2.841 8.897 6.346 8.897s6.347-3.983 6.347-8.897c0-4.913-2.842-8.897-6.347-8.897-3.505 0-6.346 3.984-6.346 8.897"/>
        </g>
        <g opacity=".598">
            <path fill="#FF6659" d="M103.08 326.804c-.538 4.679 1.675 8.783 4.944 9.167 3.269.385 6.356-3.096 6.895-7.775.539-4.679-1.674-8.783-4.943-9.167-3.269-.385-6.356 3.097-6.895 7.775"/>
            <path fill="url(#h)" d="M53 12.895l-7.32 5.415-.272-.38 4.46-8.034-1.11-.077-5.49 6.848-5.182 2.42-1.243 7.139v-6.05h-21.67V34.22l-1.01-12.728-.022-.284-1.958-4.739-2.155.57L5.59 9l-1.565.184 3.682 8.066-.574.32-5.954-6.942L0 11.4l4.843 6.088-1.584 2.721 6.239 5.12 2.064 15.456c.157.124.495.099.917 0h3.726L11.045 65l27.862-11.335-4.127-12.88 4.643.515 1.432-11.92.609-2.827 4.666-3.012.154-2.214-.476-1.145 7.076-5.626.116-1.66z" transform="matrix(-1 0 0 1 135 319)"/>
        </g>
        <path fill="#DECA8C" d="M351.618 211.61l-3.388 3.305s-1.949 24.505 5.506 39.707c7.455 15.203 9.403 21.102 10.759 29.695 1.355 8.593-.678 29.744-.678 29.744 6.044.626 12.761.939 20.151.939 7.39 0 14.002-.313 19.833-.939 0 0-2.71-14.541-1.355-25.778C403.8 277.046 416 247.633 416 247.633c-.105-10.602-.924-17.05-2.456-19.345-4.793-7.18-13.462-14.942-26.008-23.288l-35.918 6.61z"/>
        <path fill="#CBBA83" d="M415 218.5c0 17.397-14.103 31.5-31.5 31.5S352 235.897 352 218.5s14.103-31.5 31.5-31.5 31.5 14.103 31.5 31.5"/>
        <path fill="#DECA8C" d="M361 240.76c1.862 4.481 5.304 4.905 10.325 1.272 5.02-3.633 7.323-11.977 6.905-25.032l7.332 5.794L394 249.031c-3.035 10.22-7.09 14.4-12.164 12.539-5.075-1.86-12.02-8.798-20.836-20.81z"/>
        <path fill="#E9D599" d="M414.009 210s.66 5.387 0 12.12c-.45 4.592-1.882 14.555-3.519 16.469-1.637 1.914-.405-5.613-.405-7.949 0-8.08-3.339-9.193-3.339-9.193l-11.224 2.02s1.32 6.06 1.98 11.447c.277 2.249.207 4.966.032 7.369-4.615-2.726-7.117-11.75-9.275-17.47-3.3-8.753-6.602-14.14-6.602-14.14l-4.622 3.367s7.923 19.527 10.564 32.994c2.641 13.467 1.32 21.547-3.961 37.034C378.356 299.554 366 315.833 366 315.833l11.077.167s17.73-16.165 24.387-27.892c7.263-12.794 15.846-35.687 17.166-51.174 1.32-15.487-1.32-23.567-1.32-23.567L414.009 210z"/>
        <path fill="#CBBA83" d="M362.16 319L358 333.126c6.837 1.767 15.592 2.72 26.264 2.857 10.673.139 19.251-.59 25.736-2.184L405.147 319c-9.487.687-16.626 1.031-21.417 1.031-4.792 0-11.982-.344-21.57-1.031z"/>
        <path fill="url(#i)" d="M3.01 6.267l3.612-2.41-.602 9.037 6.02 3.013-1.805 6.627-3.613 3.615 3.01 10.242 6.623-6.627 22.276-3.615 4.816 3.012 4.214-1.205-1.806-6.627-4.816-3.615 3.01-6.627-1.806-6.627L44.55.845 59 38.199l-14.449 9.037-6.622 27.112L12.643 87l7.826-21.69-4.214-16.267L0 44.826z" transform="translate(253 334)"/>
        <path fill="#1565C0" d="M272.386 338.287L284.704 334s3.696 3.674 3.696 10.41c0 6.737-2.464 12.86-2.464 12.86l-10.47 1.225-3.08-20.208z"/>
        <path fill="url(#j)" d="M37.2 46.075L15 49.712l-6.6 6.67-3-10.307L9 42.437l3-6.062-7.2-3.638L0 36.981l.6 32.131 12.6-3.03 6 19.4L24.6 97l12-2.425 7.8-40.619L57 33.344 48 5.456 40.8 0l-4.2 7.275 1.8 1.819-1.2 3.031 7.2 3.637 4.2 15.157z" transform="translate(130 314)"/>
        <path fill="#D32F2F" d="M163.53 337.888l-12.252-4.318s-3.675 3.701-3.675 10.487 2.45 12.955 2.45 12.955l10.414 1.234 3.062-20.358z"/>
        <g opacity=".854">
            <path fill="url(#k)" d="M20.51 17.05L39.718 0 60 12.698l-11.243 8.404-16.763-7.871-9.771 7.44 1.255 4.035-2.935 2.902L13.5 28.77l-5.283 8.126 3.522 16.252 21.13 4.643 14.088-9.287-1.174-8.125-5.283-2.902 2.935-7.546 8.804 3.483L54 54.308 35.217 67.077l-2.347 14.51L43.435 99l-19.37-.58-11.739-12.19-7.63-26.699L0 36.895l8.217-11.608v-2.902L14.674 16l5.836 1.05z" transform="translate(193 296)"/>
            <path fill="#FF6659" d="M221.318 348s1.139-4.38 3.986-8.762c2.848-4.381 5.696-7.667 5.696-7.667L220.748 325s-7.295 2.869-9.113 9.857c-1.708 6.572.57 11.5.57 11.5l9.113 1.643z"/>
        </g>
        <path fill="url(#l)" d="M30.208 101l15.709-12.7 6.645-36.893L58 29.635 48.937 7.257 41.084 0l-6.645 6.048 6.041 7.862 3.625-.605 5.438 15.12-4.834 16.33-21.75 3.628-5.437 19.958-6.646-5.443V58.06l-5.438-7.258L0 59.874l4.833 6.653 14.5 14.515 4.834-5.443z" transform="translate(385 328)"/>
        <path fill="#5E92F3" d="M411.957 348.74s5.93-2.978 13.638-1.786c0 0 .593 7.147.593 11.913 0 4.765-1.779 10.126-1.779 10.126l-8.894.595s-4.151-6.552-3.558-20.848"/>
        <path fill="#D32F2F" d="M522.693 331.1s2.895-1.694 8.684.565c5.789 2.26 6.947 5.085 6.947 5.085l-9.263 15.816-11-3.954s-.578-6.778 4.632-17.512"/>
        <path fill="url(#m)" d="M57.6 33.826l-6-3.02-5.4 7.248 3.6 5.436-2.4 4.832-2.4-8.456-6.6-3.624-17.4-6.04-9.6-6.04L15 12.684l4.2.604 2.4-.604 2.7-3.323-1.48-.932 1.78-2.39L17.4 0 12 4.228 0 28.39l11.4 8.457s-.6 10.872 0 19.933c.6 9.06 4.8 21.14 4.8 21.14L34.2 90 39 58.59l7.8 7.853L60 39.866l-2.4-6.04z" transform="translate(491 322)"/>
        <g opacity=".849">
            <path fill="url(#n)" d="M63.365 17.817l-3.766 2.806-.635-.968 3.866-8.447-1.212-1.424-4.441 7.992-1.67-.85 2.88-9.052-1.609-.336-3.396 9.11-1.55.177.79-8.454-1.49.69-1.248 9.027-.338 1.602-3.973-2.67-.397 1.086 2.6 4.388 1.39 2.965 2.02 2.374.295 14.056-10.314 5.43-16.987-1.207-9.1-10.256L13 20.686l2.08-3.103 1.04-3.103 2.08-4.654-.52-1.035-3.64 3.104-.52-1.552L13 1.035 11.44.517v8.791H9.88L7.8 0 6.24.517l1.56 9.31-1.56 1.033-4.16-7.758-1.04 1.553 3.64 8.273-.52 1.035L.52 10.86 0 11.895l4.16 5.688 4.16 4.654 2.513 15.429 10.314 16.893 1.82 13.877-7.28 22.927L50.267 98 39.954 69.643l1.82-13.877L56.94 44.302l-.526-14.986 3.094-5.786L64 18.785z" transform="translate(325 332)"/>
            <path fill="#D32F2F" d="M365.107 363.259c0 5.599-3.248 10.138-7.254 10.138-4.005 0-7.253-4.54-7.253-10.138 0-5.6 3.248-10.138 7.253-10.138 4.006 0 7.254 4.539 7.254 10.138"/>
        </g>
        <g opacity=".851">
            <path fill="url(#o)" d="M51.6 36.909l-8.453 16.453L27 54.437 15 41.14 10.2 29.05l3.968-3.69v-2.383c4.181-2.63 8.556-5.252 15.355-7.63 6.54-2.288 16.146 1.045 20.877 3.428l2.4 4.23-1.2 13.903zM60 18.17v-5.44l-.6-6.648S48.512-1.696 30.728.34C4.706 3.319 0 11.523 0 11.523l.437 4.21 1.362 6.065 8.562 21.986 12.087 16.131 7.097 16.68L21.265 104l28.978-13.702-1.774-15.49.131-17.953 7.8-16.924 2.4-19.342 1.2-2.418z" transform="translate(432 293)"/>
            <path fill="#5E92F3" d="M473.312 331.063c.645 5.585-2.004 10.485-5.918 10.943-3.913.46-7.61-3.696-8.255-9.28-.645-5.586 2.004-10.485 5.918-10.943 3.913-.46 7.61 3.696 8.255 9.28"/>
        </g>
        <path fill="#1565C0" d="M608.273 332.304c.648 5.577-2.014 10.47-5.948 10.928-3.933.459-7.647-3.691-8.296-9.269-.649-5.577 2.014-10.47 5.947-10.928 3.933-.46 7.648 3.692 8.297 9.269"/>
        <path fill="url(#p)" d="M62 14.715l-8.563 6.368-.319-.447 5.218-9.448-1.297-.091-6.424 8.054-6.062 2.847-1.453 8.396V23.28H17.75v16.516l-1.181-14.971-.026-.334-2.291-5.573-2.522.67-5.19-9.455-1.832.217 4.308 9.487-.672.377-6.965-8.166L0 12.956l5.666 7.16-1.854 3.202 7.299 6.021 2.414 18.18c.185.146.58.116 1.073 0h4.359l-6.036 35.516 32.593-13.332-4.828-22.184 5.432.606 1.675-14.021.712-3.325 5.458-3.543.18-2.604-.557-1.347 8.278-6.617.136-1.953z" transform="translate(571 323)"/>
        <path fill="#D32F2F" d="M220.8 184l4.2 14-7-4.421zM663.485 65.414l-4.95 9.193-1.302-5.769zM697.8 203l4.2 14-7-4.421z"/>
        <path fill="#1565C0" d="M275 226l10 10.2-6.667 4.8zM759.071 132l.141 9.758-5.562-1.037z"/>
        <path fill="#D32F2F" d="M551 171l10 10-7.945-.16zM47 106l-8 8 .128-6.356z"/>
        <path fill="#1565C0" d="M624 163l14 3.664-3.512 7.336zM104.5 98.5l-2.664 11-5.336-2.76zM143.79 196L132 204.067l8.105 2.933 5.895-5.867zM647.79 267L636 275.067l8.105 2.933 5.895-5.867zM113.5 186.763l-5.867-9.263-2.133 6.368 4.267 4.632z"/>
        <path fill="#D32F2F" d="M563.79 216L552 224.067l8.105 2.933 5.895-5.867zM68.5 157.763l-5.867-9.263-2.133 6.368 4.267 4.632z"/>
        <path fill="#1565C0" d="M728.79 121L717 129.067l8.105 2.933 5.895-5.867z"/>
        <path fill="#D32F2F" d="M142.25 86L140 93.143 146.75 96l2.25-5.714z"/>
        <path fill="#1565C0" d="M287.77 170l-2.77 7.563 6.23 3.437 2.77-4.813zM494 164.743L487.217 160 482 165.017l4.03 3.983z"/>
        <path fill="#D32F2F" d="M48 203.743L41.217 199 36 204.017 40.03 208z"/>
        <path fill="#F6F7FA" d="M53 140.743L46.217 136 41 141.017 45.03 145z"/>
        <path fill="#1565C0" d="M650.5 103l4.5 6.545-3 9.455-6-4.364z"/>
        <path fill="#D32F2F" d="M137.5 243l4.5 6.545-3 9.455-6-4.364zM605.9 106.121l-1.061 5.304-6.01 3.182-.708-4.95zM233.14 256l9.86 10s-12.676 0-11.972-2.143c.705-2.143 2.113-7.857 2.113-7.857M672.959 139.01l-.302 9.597s-5.976-5.976-4.583-6.705c1.393-.728 4.885-2.893 4.885-2.893"/>
        <path fill="#1565C0" d="M479 240l-7 4.286 4.9 5.714zM8.5 264.5l-3.429-5L.5 263z"/>
    </g>
</svg>
